<svg width="32" height="32" viewBox="0 0 32 32" fill="none" xmlns="http://www.w3.org/2000/svg">
  <!-- Outer gold circle -->
  <circle cx="16" cy="16" r="15" fill="url(#goldGradient)" stroke="#FFD700" stroke-width="1"/>
  
  <!-- Inner gold circle -->
  <circle cx="16" cy="16" r="11" fill="url(#goldGradient)" stroke="#FFD700" stroke-width="0.5"/>
  
  <!-- Central geometric design -->
  <!-- Top diagonal -->
  <path d="M16 5 L22 10 L16 8 L10 10 Z" fill="url(#goldGradient)"/>
  
  <!-- Bottom diagonal -->
  <path d="M16 27 L22 22 L16 24 L10 22 Z" fill="url(#goldGradient)"/>
  
  <!-- Left diagonal -->
  <path d="M5 16 L10 10 L8 16 L10 22 Z" fill="url(#goldGradient)"/>
  
  <!-- Right diagonal -->
  <path d="M27 16 L22 10 L24 16 L22 22 Z" fill="url(#goldGradient)"/>
  
  <!-- Central diamond -->
  <rect x="15" y="15" width="2" height="2" transform="rotate(45 16 16)" fill="url(#goldGradient)"/>
  
  <!-- Curved connections -->
  <path d="M16 8 Q22 16 16 24" stroke="url(#goldGradient)" stroke-width="1" fill="none"/>
  <path d="M8 16 Q16 22 24 16" stroke="url(#goldGradient)" stroke-width="1" fill="none"/>
  
  <defs>
    <linearGradient id="goldGradient" x1="0%" y1="0%" x2="100%" y2="100%">
      <stop offset="0%" stop-color="#FFD700"/>
      <stop offset="50%" stop-color="#FFA500"/>
      <stop offset="100%" stop-color="#FF8C00"/>
    </linearGradient>
  </defs>
</svg>

